<svg width="44" height="44" viewBox="0 0 44 44" fill="none" xmlns="http://www.w3.org/2000/svg">
<rect width="44" height="44" rx="22" fill="#EDEDED"/>
<path fill-rule="evenodd" clip-rule="evenodd" d="M26.3939 12.0209L26.4599 12.0389C27.5599 12.3339 28.4309 12.5669 29.1159 12.8149C29.8169 13.0679 30.3889 13.3569 30.8599 13.7979C31.5454 14.4404 32.0249 15.2718 32.2379 16.1869C32.3849 16.8149 32.3499 17.4549 32.2179 18.1879C32.0909 18.9059 31.8579 19.7769 31.5629 20.8759L31.0269 22.8749C30.7329 23.9739 30.4989 24.8449 30.2519 25.5309C29.9979 26.2309 29.7089 26.8029 29.2679 27.2739C28.6463 27.9376 27.8474 28.4089 26.9659 28.6319C26.7076 29.224 26.3313 29.7572 25.8599 30.1989C25.3889 30.6399 24.8169 30.9289 24.1159 31.1829C23.4309 31.4309 22.5599 31.6639 21.4609 31.9589L21.3939 31.9769C20.2939 32.2709 19.4239 32.5039 18.7059 32.6329C17.9729 32.7639 17.3329 32.7989 16.7039 32.6529C15.7889 32.4392 14.9579 31.959 14.3159 31.2729C13.8759 30.8029 13.5859 30.2309 13.3319 29.5299C13.0849 28.8449 12.8519 27.9739 12.5569 26.8739L12.0209 24.8759C11.7269 23.7759 11.4929 22.9059 11.3649 22.1879C11.2339 21.4549 11.1989 20.8149 11.3449 20.1859C11.5586 19.2709 12.0388 18.4399 12.7249 17.7979C13.1949 17.3579 13.7669 17.0679 14.4679 16.8139C15.1529 16.5669 16.0239 16.3339 17.1229 16.0389L17.1569 16.0289L17.9079 15.8289C18.2999 14.4299 18.6439 13.4409 19.3159 12.7239C19.958 12.0382 20.789 11.5583 21.7039 11.3449C22.3329 11.1989 22.9719 11.2339 23.7059 11.3649C24.4229 11.4929 25.2939 11.7269 26.3939 12.0209ZM17.4549 17.5029C16.3619 17.7959 15.5789 18.0079 14.9769 18.2249C14.3669 18.4449 14.0099 18.6489 13.7499 18.8929C13.2805 19.3322 12.952 19.9008 12.8059 20.5269C12.7259 20.8749 12.7269 21.2869 12.8419 21.9239C12.9569 22.5709 13.1739 23.3809 13.4789 24.5209L13.9969 26.4529C14.3019 27.5929 14.5199 28.4029 14.7429 29.0199C14.9629 29.6299 15.1669 29.9879 15.4109 30.2479C15.8502 30.7172 16.4188 31.0458 17.0449 31.1919C17.3919 31.2719 17.8049 31.2699 18.4419 31.1559C19.0889 31.0409 19.8989 30.8239 21.0389 30.5189C22.1789 30.2129 22.9889 29.9959 23.6069 29.7719C24.2159 29.5519 24.5739 29.3479 24.8339 29.1049C24.9719 28.9749 25.0972 28.8352 25.2099 28.6859C25.0244 28.6594 24.8396 28.6277 24.6559 28.5909C23.9839 28.4569 23.1759 28.2409 22.1809 27.9739L22.1229 27.9589C21.0239 27.6639 20.1529 27.4309 19.4679 27.1829C18.7669 26.9299 18.1949 26.6409 17.7239 26.1999C17.038 25.5575 16.5581 24.7261 16.3449 23.8109C16.1989 23.1829 16.2339 22.5429 16.3649 21.8099C16.4929 21.0919 16.7269 20.2209 17.0209 19.1219L17.4549 17.5029ZM23.4419 12.8419C22.8039 12.7269 22.3919 12.7249 22.0449 12.8059C21.4188 12.952 20.8502 13.2805 20.4109 13.7499C19.9749 14.2149 19.7059 14.9349 19.2399 16.6429L18.9969 17.5449L18.4789 19.4769C18.1739 20.6169 17.9569 21.4269 17.8419 22.0739C17.7269 22.7109 17.7249 23.1239 17.8059 23.4709C17.952 24.0969 18.2805 24.6656 18.7499 25.1049C19.0099 25.3489 19.3679 25.5519 19.9769 25.7729C20.5949 25.9959 21.4049 26.2129 22.5449 26.5189C23.5699 26.7939 24.3299 26.9969 24.9479 27.1189C25.5629 27.2419 25.9809 27.2719 26.3229 27.2299C26.3976 27.2199 26.4696 27.2072 26.5389 27.1919C27.1649 27.0458 27.7336 26.7172 28.1729 26.2479C28.4169 25.9879 28.6209 25.6299 28.8409 25.0209C29.0639 24.4029 29.2809 23.5929 29.5869 22.4529L30.1049 20.5209C30.4099 19.3809 30.6269 18.5709 30.7419 17.9239C30.8559 17.2869 30.8589 16.8739 30.7779 16.5269C30.6318 15.9008 30.3032 15.3322 29.8339 14.8929C29.5739 14.6489 29.2159 14.4459 28.6069 14.2249C27.9879 14.0019 27.1789 13.7849 26.0389 13.4789C24.8989 13.1739 24.0889 12.9569 23.4419 12.8419ZM21.0519 19.8059C21.0774 19.7107 21.1214 19.6215 21.1814 19.5434C21.2414 19.4653 21.3162 19.3997 21.4016 19.3505C21.4869 19.3013 21.5811 19.2694 21.6788 19.2566C21.7765 19.2438 21.8757 19.2503 21.9709 19.2759L26.8009 20.5699C26.9877 20.6261 27.1453 20.7528 27.2402 20.9232C27.3351 21.0936 27.3599 21.2943 27.3092 21.4827C27.2586 21.6711 27.1366 21.8323 26.9691 21.9323C26.8016 22.0322 26.6017 22.0629 26.4119 22.0179L21.5819 20.7239C21.3899 20.6723 21.2263 20.5467 21.1269 20.3746C21.0276 20.2024 21.0006 19.9979 21.0519 19.8059ZM20.2749 22.7039C20.3004 22.6086 20.3445 22.5193 20.4045 22.4411C20.4646 22.3629 20.5395 22.2973 20.625 22.2481C20.7104 22.1988 20.8047 22.167 20.9025 22.1542C21.0003 22.1415 21.0997 22.1482 21.1949 22.1739L24.0919 22.9499C24.284 23.0013 24.4479 23.127 24.5474 23.2993C24.6469 23.4715 24.6738 23.6762 24.6224 23.8684C24.5709 24.0605 24.4453 24.2244 24.273 24.3239C24.1008 24.4234 23.896 24.4503 23.7039 24.3989L20.8059 23.6219C20.6139 23.5703 20.4503 23.4447 20.3509 23.2726C20.2516 23.1004 20.2246 22.8959 20.2759 22.7039" fill="#010101"/>
</svg>
