<svg width="44" height="44" viewBox="0 0 44 44" fill="none" xmlns="http://www.w3.org/2000/svg">
<rect width="44" height="44" rx="22" fill="#EDEDED"/>
<path d="M14 20.143C14 15.646 17.582 12 22 12C26.418 12 30 15.646 30 20.143C30 24.605 27.447 29.813 23.463 31.674C23.0051 31.8884 22.5056 31.9996 22 31.9996C21.4944 31.9996 20.9949 31.8884 20.537 31.674C16.553 29.812 14 24.606 14 20.144V20.143Z" stroke="black" stroke-width="1.5"/>
<path d="M22 23C23.6569 23 25 21.6569 25 20C25 18.3431 23.6569 17 22 17C20.3431 17 19 18.3431 19 20C19 21.6569 20.3431 23 22 23Z" stroke="black" stroke-width="1.5"/>
</svg>
