<svg width="246" height="79" viewBox="0 0 246 79" fill="none" xmlns="http://www.w3.org/2000/svg">
<path d="M49.3448 7.62951C49.9998 6.70531 51.4431 6.98055 51.709 8.08037L55.7595 24.8357C55.9199 25.4988 56.5622 25.93 57.2395 25.8292L84.6055 21.7577C85.8139 21.578 86.5992 22.9874 85.8059 23.9132L66.5977 46.3413C66.4281 46.5394 66.3213 46.7831 66.2907 47.0417L63.7171 68.8512C63.6095 69.7633 62.6204 70.2879 61.8003 69.8678L45.7988 61.6708C45.4072 61.4702 44.9411 61.477 44.5556 61.689L23.6516 73.1828C22.6148 73.7529 21.4063 72.7812 21.7476 71.6517L27.5211 52.5391C27.7204 51.8792 27.3747 51.1779 26.7286 50.9312L7.8621 43.7291C6.74103 43.3011 6.72772 41.7264 7.8414 41.2797L32.1437 31.5319C32.3795 31.4372 32.583 31.2769 32.7296 31.0701L49.3448 7.62951Z" fill="#F3BB06"/>
<path d="M36.7638 48.7381C39.9675 48.7381 42.5647 46.0469 42.5647 42.7271C42.5647 39.4073 39.9675 36.7161 36.7638 36.7161C33.56 36.7161 30.9629 39.4073 30.9629 42.7271C30.9629 46.0469 33.56 48.7381 36.7638 48.7381Z" fill="white"/>
<path d="M156.861 32.7095C156.638 31.1774 155.21 30.1155 153.672 30.3374C152.133 30.5594 151.067 31.9813 151.29 33.5133L156.861 32.7095ZM173.009 52.4857C173.232 54.0177 174.659 55.0798 176.198 54.8578C177.736 54.6359 178.803 53.214 178.58 51.682L173.009 52.4857ZM187.399 33.3184C187.514 31.7745 186.35 30.4304 184.8 30.3161C183.25 30.2018 181.9 31.3606 181.785 32.9044L187.399 33.3184ZM196.411 33.1114L199.224 33.1858C199.265 31.6661 198.082 30.3912 196.557 30.3122C195.033 30.2332 193.722 31.3787 193.605 32.8944L196.411 33.1114ZM208.634 33.1114L211.446 33.2082C211.499 31.6974 210.339 30.4173 208.825 30.3149C207.31 30.2124 205.986 31.3245 205.833 32.8284L208.634 33.1114ZM214.475 54.8578C216.014 54.6359 217.08 53.214 216.858 51.682C216.635 50.1499 215.207 49.0879 213.668 49.3098L214.475 54.8578ZM151.29 33.5133C151.408 34.3226 151.364 35.817 151.278 38.0209C151.2 40.066 151.1 42.53 151.225 44.8391C151.346 47.0672 151.69 49.5874 152.767 51.5469C153.334 52.5792 154.17 53.5761 155.39 54.2279C156.63 54.8906 158.013 55.0607 159.419 54.8578L158.613 49.3098C158.181 49.372 158.053 49.2891 158.052 49.2882C158.03 49.2766 157.894 49.1998 157.705 48.8557C157.269 48.0623 156.959 46.6194 156.846 44.536C156.738 42.5335 156.822 40.3376 156.903 38.2367C156.979 36.2945 157.072 34.1566 156.861 32.7095L151.29 33.5133ZM159.419 54.8578C162.622 54.3958 164.226 52.0489 165.061 49.8911C165.849 47.851 166.231 45.2645 166.6 43.2254C167.009 40.9713 167.428 39.1622 168.148 37.8474C168.772 36.7069 169.534 36.0749 170.848 35.8853L170.041 30.3374C166.654 30.8261 164.511 32.7785 163.205 35.1647C161.995 37.3765 161.458 40.0363 161.061 42.2295C160.624 44.6377 160.349 46.4767 159.807 47.8767C159.311 49.159 158.911 49.2667 158.613 49.3098L159.419 54.8578ZM170.848 35.8853C171.28 35.823 171.43 35.9038 171.46 35.9195C171.512 35.9469 171.669 36.0483 171.878 36.4114C172.351 37.2343 172.699 38.7066 172.859 40.7942C173.013 42.8037 172.972 45.0062 172.923 47.0863C172.878 49.006 172.809 51.112 173.009 52.4857L178.58 51.682C178.466 50.9018 178.499 49.4255 178.551 47.217C178.599 45.1687 178.65 42.6967 178.471 40.3678C178.299 38.1171 177.89 35.5871 176.763 33.6262C176.172 32.5973 175.318 31.6111 174.095 30.966C172.85 30.3091 171.462 30.1323 170.041 30.3374L170.848 35.8853ZM181.785 32.9044C181.551 36.0557 181.498 40.9586 182.22 45.2066C182.576 47.3098 183.159 49.4757 184.154 51.2134C185.161 52.9714 186.86 54.7074 189.481 54.8806L189.854 49.287C189.853 49.287 189.551 49.322 189.044 48.4367C188.525 47.531 188.082 46.1112 187.77 44.2718C187.152 40.6344 187.183 36.2243 187.399 33.3184L181.785 32.9044ZM189.481 54.8806C192.198 55.0601 194.09 53.4115 195.239 51.7214C196.377 50.0498 197.138 47.8863 197.672 45.7674C198.754 41.4796 199.138 36.4172 199.224 33.1858L193.597 33.0369C193.516 36.0907 193.15 40.6877 192.213 44.4014C191.738 46.2833 191.172 47.7061 190.579 48.5773C190.293 48.9979 190.073 49.1806 189.963 49.2496C189.89 49.2953 189.878 49.2886 189.854 49.287L189.481 54.8806ZM193.605 32.8944C193.339 36.2965 193.537 41.5138 194.518 45.8713C195.003 48.0235 195.735 50.2281 196.882 51.9075C198.062 53.6352 200.054 55.2618 202.854 54.8578L202.047 49.3098C202.026 49.313 202.058 49.3179 202.049 49.3121C201.992 49.2799 201.804 49.1465 201.537 48.7551C200.979 47.938 200.438 46.5392 200.011 44.6444C199.17 40.9083 198.989 36.2583 199.217 33.3284L193.605 32.8944ZM202.854 54.8578C205.377 54.4939 207.023 52.7346 208.047 50.9936C209.077 49.2416 209.745 47.0828 210.201 44.9845C211.121 40.761 211.35 35.9863 211.446 33.2082L205.821 33.0146C205.724 35.7793 205.503 40.1098 204.7 43.7963C204.296 45.653 203.784 47.1504 203.189 48.1611C202.588 49.1829 202.166 49.2928 202.047 49.3098L202.854 54.8578ZM205.833 32.8284C205.486 36.2334 205.149 41.5114 205.819 45.9021C206.148 48.0619 206.77 50.3611 208.037 52.1105C208.697 53.0218 209.578 53.8451 210.731 54.3697C211.899 54.9011 213.173 55.0457 214.475 54.8578L213.668 49.3098C213.308 49.3619 213.143 49.3038 213.07 49.2704C212.982 49.2303 212.818 49.1272 212.602 48.8305C212.12 48.1638 211.668 46.9216 211.384 45.0596C210.826 41.4063 211.096 36.7183 211.434 33.3943L205.833 32.8284Z" fill="black"/>
<path d="M112.514 52.3204C112.94 46.7168 112.583 33.0048 105.902 33.0049C98.7409 33.0049 102.251 50.5375 94.5781 52.3204" stroke="black" stroke-width="4.99591" stroke-linecap="round"/>
<path d="M112.297 46.1309H100.234" stroke="black" stroke-width="4.99591" stroke-linecap="round"/>
<path d="M222.591 52.1727C222.165 46.5692 222.522 32.8572 229.203 32.8572C236.365 32.8572 232.853 50.3898 240.527 52.1727" stroke="black" stroke-width="4.99591" stroke-linecap="round"/>
<path d="M222.809 45.9832H234.871" stroke="black" stroke-width="4.99591" stroke-linecap="round"/>
<path d="M127.642 32.9697C127.642 32.9697 121.662 35.4185 121.065 41.4853C120.468 47.5521 128.404 47.2464 132.447 47.1289C136.49 47.0113 145.544 47.1045 144.949 39.8981C144.3 32.0581 129.648 23.5541 132.447 52.6534" stroke="black" stroke-width="4.99591" stroke-linecap="round"/>
<path d="M84.123 44.4015L91.0391 27.9753" stroke="black" stroke-width="4.99591" stroke-linecap="round"/>
<path d="M81.3035 54.9167C82.8605 54.9167 84.1227 53.5682 84.1227 51.9048C84.1227 50.2413 82.8605 48.8928 81.3035 48.8928C79.7465 48.8928 78.4844 50.2413 78.4844 51.9048C78.4844 53.5682 79.7465 54.9167 81.3035 54.9167Z" fill="black"/>
<path d="M71.1644 57.1649L67.2129 51.0896" stroke="black" stroke-width="4.99591" stroke-linecap="round"/>
<path d="M73.9087 39.3901C73.9087 46.3169 68.0185 52.1136 60.5236 52.1136C53.0287 52.1136 47.1387 46.3169 47.1387 39.3901C47.1387 32.4634 53.0287 26.6667 60.5236 26.6667C68.0185 26.6667 73.9087 32.4634 73.9087 39.3901Z" fill="white" stroke="black" stroke-width="4.99591"/>
<path d="M64.1306 45.4529C68.3298 45.4529 71.7339 41.9255 71.7339 37.5742C71.7339 33.223 68.3298 29.6956 64.1306 29.6956C59.9314 29.6956 56.5273 33.223 56.5273 37.5742C56.5273 41.9255 59.9314 45.4529 64.1306 45.4529Z" fill="black"/>
<path d="M39.0441 44.8223C40.8397 44.8223 42.2953 43.314 42.2953 41.4534C42.2953 39.5928 40.8397 38.0845 39.0441 38.0845C37.2486 38.0845 35.793 39.5928 35.793 41.4534C35.793 43.314 37.2486 44.8223 39.0441 44.8223Z" fill="black"/>
<path d="M41.584 50.6702C42.2439 51.3611 44.2638 52.4125 47.0647 51.0901" stroke="black" stroke-width="1.8764" stroke-linecap="round"/>
</svg>
